<?xml version="1.0" standalone="no"?><!DOCTYPE svg PUBLIC "-//W3C//DTD SVG 1.1//EN" "http://www.w3.org/Graphics/SVG/1.1/DTD/svg11.dtd"><svg t="1612228150762" class="icon" viewBox="0 0 1024 1024" version="1.1" xmlns="http://www.w3.org/2000/svg" p-id="1901" width="128" height="128" xmlns:xlink="http://www.w3.org/1999/xlink"><defs><style type="text/css"></style></defs><path d="M835.08 746.01c-5.82 0-11.7-1.58-16.99-4.91-14.96-9.4-19.48-29.15-10.07-44.12a334.688 334.688 0 0 0 27.05-52.99c6.6-16.39 25.23-24.34 41.63-17.74 16.39 6.6 24.34 25.24 17.74 41.63-8.8 21.86-19.64 43.1-32.23 63.14-6.08 9.68-16.49 14.99-27.13 14.99z" fill="#146AFB" p-id="1902"></path><path d="M193.92 746.01c-10.64 0-21.05-5.31-27.13-14.98C127.02 667.72 106 594.73 106 519.95c0-54.32 10.83-107.02 32.19-156.65 20.61-47.88 50.1-90.87 87.65-127.77 37.51-36.86 81.19-65.8 129.82-86.01C406 128.61 459.44 118 514.5 118s108.5 10.61 158.83 31.52c48.63 20.21 92.31 49.15 129.82 86.01 37.55 36.9 67.04 79.88 87.65 127.77 21.37 49.63 32.2 102.33 32.2 156.65 0 51.07-9.61 100.84-28.56 147.93-6.6 16.39-25.24 24.34-41.63 17.74-16.4-6.6-24.34-25.24-17.74-41.63 15.88-39.46 23.94-81.2 23.94-124.04C859 333.6 704.46 182 514.5 182S170 333.6 170 519.95c0 62.72 17.63 123.93 50.99 177.03 9.4 14.97 4.89 34.72-10.07 44.12a31.896 31.896 0 0 1-17 4.91z" fill="#146AFB" p-id="1903"></path><path d="M118.83 885.22a31.76 31.76 0 0 1-15.21-3.87c-15.54-8.42-21.32-27.84-12.9-43.38l74.96-138.42c8.42-15.54 27.84-21.32 43.38-12.9 15.54 8.42 21.32 27.84 12.9 43.38L147 868.45c-5.79 10.7-16.8 16.77-28.17 16.77zM909.85 885.22c-11.37 0-22.37-6.07-28.17-16.77l-74.96-138.42c-8.42-15.54-2.64-34.96 12.9-43.38 15.54-8.42 34.96-2.64 43.38 12.9l74.96 138.42c8.42 15.54 2.64 34.96-12.9 43.38a31.874 31.874 0 0 1-15.21 3.87z" fill="#146AFB" p-id="1904"></path><path d="M909.5 886h-791c-17.67 0-32-14.33-32-32s14.33-32 32-32h791c17.67 0 32 14.33 32 32s-14.33 32-32 32zM689.11 545.3c-1.38 0-2.78-0.09-4.18-0.27l-177.46-23.18c-17.52-2.29-29.88-18.35-27.59-35.88 2.29-17.52 18.35-29.87 35.88-27.59l177.46 23.18c17.52 2.29 29.88 18.35 27.59 35.88-2.11 16.12-15.87 27.86-31.7 27.86z" fill="#146AFB" p-id="1905"></path><path d="M389.24 644.76c-8.44 0-16.86-3.32-23.15-9.9-12.2-12.78-11.74-33.04 1.05-45.24l129.44-123.59c12.79-12.21 33.04-11.74 45.24 1.05 12.2 12.78 11.74 33.04-1.05 45.24L411.33 635.91a31.918 31.918 0 0 1-22.09 8.85z" fill="#146AFB" p-id="1906"></path><path d="M519.19 527.44c-11.72 0-23-6.46-28.62-17.64l-80.36-159.91c-7.94-15.79-1.57-35.03 14.22-42.96 15.79-7.94 35.03-1.57 42.96 14.22l80.36 159.91c7.94 15.79 1.57 35.03-14.22 42.96a31.816 31.816 0 0 1-14.34 3.42zM682.72 621.41c-1 0-2-0.05-3.01-0.14-17.6-1.64-30.53-17.24-28.89-34.83l7.1-76.12c1.64-17.6 17.24-30.53 34.83-28.89 17.6 1.64 30.53 17.24 28.89 34.83l-7.1 76.12c-1.54 16.59-15.48 29.03-31.82 29.03zM388.54 645.41c-8.53 0-17.04-3.39-23.34-10.1l-52.36-55.78c-12.09-12.89-11.45-33.14 1.43-45.23 12.88-12.09 33.14-11.45 45.23 1.43l52.36 55.78c12.09 12.89 11.45 33.14-1.43 45.23-6.17 5.8-14.04 8.67-21.89 8.67z" fill="#146AFB" p-id="1907"></path><path d="M438.73 367.19c-12.48 0-24.33-7.34-29.49-19.56-6.88-16.28 0.75-35.05 17.03-41.93l70.48-29.76c16.28-6.87 35.05 0.75 41.93 17.03 6.88 16.28-0.75 35.05-17.03 41.93l-70.48 29.76a32.065 32.065 0 0 1-12.44 2.53z" fill="#146AFB" p-id="1908"></path></svg>